<svg viewBox="0 0 24 24" fill="none" xmlns="http://www.w3.org/2000/svg">
	<g id="bookmark">
		<mask id="path-1-inside-1_1_2" fill="white">
			<path fill-rule="evenodd" clip-rule="evenodd" d="M5 5.25C5 4.00736 6.00736 3 7.25 3H16.75C17.9926 3 19 4.00736 19 5.25V12.6699V14.75V21.3301L12 17.9623L5 21.3301V14.75V12.6699V5.25Z"/>
		</mask>
		<path id="background" fill-rule="evenodd" clip-rule="evenodd" d="M5 5.25C5 4.00736 6.00736 3 7.25 3H16.75C17.9926 3 19 4.00736 19 5.25V12.6699V14.75V21.3301L12 17.9623L5 21.3301V14.75V12.6699V5.25Z" fill="#00000000"/>
		<path id="stroke" d="M19 21.3301L18.1329 23.1324L21 24.5118V21.3301H19ZM12 17.9623L12.8671 16.16L12 15.7428L11.1329 16.16L12 17.9623ZM5 21.3301H3V24.5118L5.86711 23.1324L5 21.3301ZM7.25 1C4.90279 1 3 2.90279 3 5.25H7C7 5.11193 7.11193 5 7.25 5V1ZM16.75 1H7.25V5H16.75V1ZM21 5.25C21 2.90279 19.0972 1 16.75 1V5C16.8881 5 17 5.11193 17 5.25H21ZM21 12.6699V5.25H17V12.6699H21ZM21 14.75V12.6699H17V14.75H21ZM21 21.3301V14.75H17V21.3301H21ZM11.1329 19.7645L18.1329 23.1324L19.8671 19.5279L12.8671 16.16L11.1329 19.7645ZM11.1329 16.16L4.13289 19.5279L5.86711 23.1324L12.8671 19.7645L11.1329 16.16ZM7 21.3301V14.75H3V21.3301H7ZM7 14.75V12.6699H3V14.75H7ZM3 5.25V12.6699H7V5.25H3Z" fill="black" mask="url(#path-1-inside-1_1_2)"/>
	</g>
</svg>
