<svg width="24" height="24" viewBox="0 0 24 24" fill="none" xmlns="http://www.w3.org/2000/svg">
	<g id="key">
		<mask id="path-1-inside-1_0_1" fill="white">
			<path fill-rule="evenodd" clip-rule="evenodd" d="M12.1973 15C11.1599 16.7934 9.22085 18 7 18C3.68629 18 1 15.3137 1 12C1 8.68629 3.68629 6 7 6C9.22085 6 11.1599 7.2066 12.1973 9H21V8.96891L24 12L21 15.0311V15.0018L19.27 16.5L17.5379 15H17.532L15.8 16.5L14.0679 15H12.1973Z"/>
		</mask>
		<path id="background" fill-rule="evenodd" clip-rule="evenodd" d="M12.1973 15C11.1599 16.7934 9.22085 18 7 18C3.68629 18 1 15.3137 1 12C1 8.68629 3.68629 6 7 6C9.22085 6 11.1599 7.2066 12.1973 9H21V8.96891L24 12L21 15.0311V15.0018L19.27 16.5L17.5379 15H17.532L15.8 16.5L14.0679 15H12.1973Z" fill="#00000000"/>
		<path id="stroke" d="M12.1973 15V13H11.0437L10.4661 13.9985L12.1973 15ZM12.1973 9L10.4661 10.0015L11.0437 11H12.1973V9ZM21 9V11H23V9H21ZM21 8.96891L22.4215 7.56201L19 4.10506V8.96891H21ZM24 12L25.4215 13.4069L26.814 12L25.4215 10.5931L24 12ZM21 15.0311H19V19.8949L22.4215 16.438L21 15.0311ZM21 15.0018H23V10.624L19.6907 13.4899L21 15.0018ZM19.27 16.5L17.9607 18.0119L19.27 19.1458L20.5793 18.0119L19.27 16.5ZM17.5379 15L18.8472 13.4881L18.2836 13H17.5379V15ZM17.532 15V13H16.7864L16.2227 13.4881L17.532 15ZM15.8 16.5L14.4907 18.0119L15.8 19.1458L17.1093 18.0119L15.8 16.5ZM14.0679 15L15.3772 13.4881L14.8136 13H14.0679V15ZM7 20C9.96365 20 12.5483 18.3874 13.9285 16.0015L10.4661 13.9985C9.77146 15.1994 8.47805 16 7 16V20ZM-1 12C-1 16.4183 2.58172 20 7 20V16C4.79086 16 3 14.2091 3 12H-1ZM7 4C2.58172 4 -1 7.58172 -1 12H3C3 9.79086 4.79086 8 7 8V4ZM13.9285 7.99855C12.5483 5.61256 9.96365 4 7 4V8C8.47805 8 9.77146 8.80063 10.4661 10.0015L13.9285 7.99855ZM21 7H12.1973V11H21V7ZM23 9V8.96891H19V9H23ZM19.5785 10.3758L22.5785 13.4069L25.4215 10.5931L22.4215 7.56201L19.5785 10.3758ZM22.5785 10.5931L19.5785 13.6242L22.4215 16.438L25.4215 13.4069L22.5785 10.5931ZM23 15.0311V15.0018H19V15.0311H23ZM20.5793 18.0119L22.3093 16.5136L19.6907 13.4899L17.9607 14.9881L20.5793 18.0119ZM16.2286 16.5119L17.9607 18.0119L20.5793 14.9881L18.8472 13.4881L16.2286 16.5119ZM17.532 17H17.5379V13H17.532V17ZM17.1093 18.0119L18.8413 16.5119L16.2227 13.4881L14.4907 14.9881L17.1093 18.0119ZM12.7586 16.5119L14.4907 18.0119L17.1093 14.9881L15.3772 13.4881L12.7586 16.5119ZM12.1973 17H14.0679V13H12.1973V17Z" fill="white" mask="url(#path-1-inside-1_0_1)"/>
	</g>
	<circle id="hole" cx="7" cy="12" r="2" fill="white"/>
</svg>
