<svg viewBox="0 0 24 24" fill="none" xmlns="http://www.w3.org/2000/svg">
	<g id="person">
		<circle id="head" cx="12" cy="8" r="3" fill="#00000000" stroke="white" stroke-width="2"/>
		<g id="body">
			<mask id="path-2-inside-1_1_6" fill="white">
				<path fill-rule="evenodd" clip-rule="evenodd" d="M17.6569 13.8787C19.1571 14.4413 20 15.2044 20 16V20H4V16C4 15.2044 4.84286 14.4413 6.34315 13.8787C7.84344 13.3161 9.87827 13 12 13C14.1217 13 16.1566 13.3161 17.6569 13.8787Z"/>
			</mask>
			<path id="background" fill-rule="evenodd" clip-rule="evenodd" d="M17.6569 13.8787C19.1571 14.4413 20 15.2044 20 16V20H4V16C4 15.2044 4.84286 14.4413 6.34315 13.8787C7.84344 13.3161 9.87827 13 12 13C14.1217 13 16.1566 13.3161 17.6569 13.8787Z" fill="#00000000"/>
			<path id="stroke" d="M17.6569 13.8787L16.9546 15.7513L16.9546 15.7513L17.6569 13.8787ZM20 20V22H22V20H20ZM4 20H2V22H4V20ZM6.34315 13.8787L5.6409 12.006L5.6409 12.006L6.34315 13.8787ZM22 16C22 14.8439 21.3816 13.9562 20.7333 13.3693C20.0843 12.7817 19.2483 12.3395 18.3591 12.006L16.9546 15.7513C17.5657 15.9805 17.9013 16.2011 18.0487 16.3346C18.1969 16.4688 18 16.3604 18 16H22ZM18 16V20H22V16H18ZM20 18H4V22H20V18ZM6 20V16H2V20H6ZM5.6409 12.006C4.75175 12.3395 3.9157 12.7817 3.26667 13.3693C2.61836 13.9562 2 14.8439 2 16H6C6 16.3604 5.80306 16.4688 5.95125 16.3346C6.09873 16.2011 6.43425 15.9805 7.04539 15.7513L5.6409 12.006ZM12 11C9.71175 11 7.42543 11.3368 5.6409 12.006L7.04539 15.7513C8.26144 15.2953 10.0448 15 12 15V11ZM18.3591 12.006C16.5746 11.3368 14.2883 11 12 11V15C13.9552 15 15.7386 15.2953 16.9546 15.7513L18.3591 12.006Z" fill="white" mask="url(#path-2-inside-1_1_6)"/>
		</g>
	</g>
</svg>
