<svg width="14" height="21" viewBox="0 0 14 21" fill="none" xmlns="http://www.w3.org/2000/svg">
    <g id="pin">
        <g id="body">
            <mask id="path-1-inside-1_4_8" fill="white">
                <path fill-rule="evenodd" clip-rule="evenodd" d="M13 10.6076C13.6348 9.55404 14 8.31967 14 7C14 3.13401 10.866 0 7 0C3.13401 0 0 3.13401 0 7C0 8.31967 0.36518 9.55404 1 10.6076V10.6077L7.00002 21L13 10.6077V10.6076Z"/>
            </mask>
            <path id="background" fill-rule="evenodd" clip-rule="evenodd" d="M13 10.6076C13.6348 9.55404 14 8.31967 14 7C14 3.13401 10.866 0 7 0C3.13401 0 0 3.13401 0 7C0 8.31967 0.36518 9.55404 1 10.6076V10.6077L7.00002 21L13 10.6077V10.6076Z" fill="white"/>
            <path id="stroke" d="M13 10.6076L11.2869 9.57538L11 10.0516V10.6076H13ZM1 10.6076H3V10.0516L2.71305 9.57538L1 10.6076ZM1 10.6077H-1V11.1436L-0.732051 11.6077L1 10.6077ZM7.00002 21L5.26797 22L7.00002 25L8.73207 22L7.00002 21ZM13 10.6077L14.7321 11.6077L15 11.1436V10.6077H13ZM12 7C12 7.94583 11.7393 8.82466 11.2869 9.57538L14.7131 11.6398C15.5303 10.2834 16 8.69351 16 7H12ZM7 2C9.76142 2 12 4.23858 12 7H16C16 2.02944 11.9706 -2 7 -2V2ZM2 7C2 4.23858 4.23858 2 7 2V-2C2.02944 -2 -2 2.02944 -2 7H2ZM2.71305 9.57538C2.2607 8.82466 2 7.94583 2 7H-2C-2 8.69351 -1.53034 10.2834 -0.71305 11.6398L2.71305 9.57538ZM3 10.6077V10.6076H-1V10.6077H3ZM8.73207 20L2.73205 9.60766L-0.732051 11.6077L5.26797 22L8.73207 20ZM11.2679 9.60773L5.26797 20L8.73207 22L14.7321 11.6077L11.2679 9.60773ZM11 10.6076V10.6077H15V10.6076H11Z" fill="black" mask="url(#path-1-inside-1_4_8)"/>
        </g>
        <circle id="dot" cx="7" cy="7" r="1.5" fill="black"/>
    </g>
</svg>
