<svg viewBox="0 0 24 24" fill="none" xmlns="http://www.w3.org/2000/svg">
	<g id="product-tag" clip-path="url(#clip0_1_8)">
		<g id="body">
			<mask id="path-1-inside-1_1_8" fill="white">
				<path fill-rule="evenodd" clip-rule="evenodd" d="M4.27146 2.23346C3.1385 2.21281 2.21468 3.13662 2.23534 4.26959L2.36168 11.1997C2.37168 11.7484 2.58507 12.2098 2.91189 12.5475C2.91245 12.548 2.91244 12.549 2.91188 12.5495V12.5495C2.9113 12.5501 2.9113 12.551 2.91188 12.5516L11.7782 21.4179C12.5592 22.199 13.8256 22.199 14.6066 21.4179L21.4135 14.611C22.1945 13.83 22.1945 12.5637 21.4135 11.7826L12.6795 3.04865C12.3349 2.64465 11.8245 2.37116 11.2016 2.3598L4.27146 2.23346Z"/>
			</mask>
			<path id="background" fill-rule="evenodd" clip-rule="evenodd" d="M4.27146 2.23346C3.1385 2.21281 2.21468 3.13662 2.23534 4.26959L2.36168 11.1997C2.37168 11.7484 2.58507 12.2098 2.91189 12.5475C2.91245 12.548 2.91244 12.549 2.91188 12.5495V12.5495C2.9113 12.5501 2.9113 12.551 2.91188 12.5516L11.7782 21.4179C12.5592 22.199 13.8256 22.199 14.6066 21.4179L21.4135 14.611C22.1945 13.83 22.1945 12.5637 21.4135 11.7826L12.6795 3.04865C12.3349 2.64465 11.8245 2.37116 11.2016 2.3598L4.27146 2.23346Z" fill="#00000000"/>
			<path id="stroke" d="M2.23534 4.26959L4.23501 4.23313L4.23501 4.23313L2.23534 4.26959ZM4.27146 2.23346L4.23501 4.23313L4.23501 4.23313L4.27146 2.23346ZM2.36168 11.1997L4.36135 11.1632L4.36135 11.1632L2.36168 11.1997ZM12.6795 3.04865L11.158 4.34672L11.2653 4.46287L12.6795 3.04865ZM11.2016 2.3598L11.238 0.360137L11.238 0.360137L11.2016 2.3598ZM2.91188 12.5495L4.32609 13.9637L2.91188 12.5495ZM2.91189 12.5475L4.3491 11.1566L2.91189 12.5475ZM2.91188 12.5495L4.32609 13.9637L2.91188 12.5495ZM4.23501 4.23313L4.23501 4.23313L4.30792 0.233794C2.04199 0.192483 0.194361 2.04011 0.235671 4.30604L4.23501 4.23313ZM4.36135 11.1632L4.23501 4.23313L0.235671 4.30604L0.362014 11.2362L4.36135 11.1632ZM4.3491 11.1566C4.35005 11.1576 4.35195 11.1598 4.35426 11.1632C4.35662 11.1668 4.35883 11.1708 4.36057 11.175C4.36236 11.1792 4.3629 11.1817 4.36283 11.1814C4.36278 11.1811 4.36157 11.1755 4.36135 11.1632L0.362014 11.2362C0.381548 12.3077 0.80725 13.2486 1.47468 13.9383L4.3491 11.1566ZM13.1924 20.0037L4.32609 11.1374L1.49766 13.9658L10.364 22.8321L13.1924 20.0037ZM19.9993 13.1968L13.1924 20.0037L16.0208 22.8321L22.8277 16.0252L19.9993 13.1968ZM11.2653 4.46287L19.9993 13.1968L22.8277 10.3684L14.0937 1.63444L11.2653 4.46287ZM11.1651 4.35947C11.1789 4.35972 11.1844 4.36121 11.1834 4.36097C11.1824 4.36075 11.1787 4.3597 11.1736 4.35722C11.1686 4.35481 11.1645 4.35213 11.1615 4.34982C11.1587 4.34761 11.1577 4.34635 11.158 4.34672L14.201 1.75059C13.5027 0.932012 12.4608 0.38243 11.238 0.360137L11.1651 4.35947ZM4.23501 4.23313L11.1651 4.35947L11.238 0.360137L4.30792 0.233794L4.23501 4.23313ZM22.8277 16.0252C24.3898 14.4632 24.3898 11.9305 22.8277 10.3684L19.9993 13.1968L19.9993 13.1968L22.8277 16.0252ZM10.364 22.8321C11.9261 24.3942 14.4587 24.3942 16.0208 22.8321L13.1924 20.0037L13.1924 20.0037L10.364 22.8321ZM1.49766 11.1353C0.716065 11.9169 0.716019 13.1842 1.49766 13.9658L4.32609 11.1374C5.10659 11.9179 5.10654 13.1833 4.32609 13.9637L1.49766 11.1353ZM1.47468 13.9383C0.715513 13.1538 0.726706 11.9063 1.49766 11.1353L4.32609 13.9637C5.09818 13.1917 5.10939 11.9423 4.3491 11.1566L1.47468 13.9383Z" fill="black" mask="url(#path-1-inside-1_1_8)"/>
		</g>
		<circle id="hole" cx="7" cy="7" r="1.5" fill="black"/>
	</g>

	<defs>
		<clipPath id="clip0_1_8">
			<rect width="24" height="24" fill="white"/>
		</clipPath>
	</defs>
</svg>
